<svg id="katman_1" data-name="katman 1" xmlns="http://www.w3.org/2000/svg" width="18.8" height="264.1" viewBox="0 0 18.8 264.1">
  <defs>
    <style>
      .cls-1 {
        fill: #383838;
      }
    </style>
  </defs>
  <title>contact</title>
  <path id="cagatay.topcu.io-cag" class="cls-1" d="M7.7,85.8a3.2,3.2,0,0,1-.3,1.4,2.8,2.8,0,0,1-.9,1,2.8,2.8,0,0,1-1.3.3,2.8,2.8,0,0,1-1.3-.3,2.8,2.8,0,0,1-.9-1,3.2,3.2,0,0,1-.3-1.4A2.5,2.5,0,0,1,3,84.5a2,2,0,0,1,.9-.9l.6,1.1a1.3,1.3,0,0,0-.6,1.1,1.2,1.2,0,0,0,.3.9,1.3,1.3,0,0,0,1,.4,1.3,1.3,0,0,0,1-.4,1.2,1.2,0,0,0,.3-.9,1.3,1.3,0,0,0-.6-1.1l.6-1.1a3.8,3.8,0,0,1,.9.9A2.5,2.5,0,0,1,7.7,85.8Zm-5-4.9a3,3,0,0,1,.5-1.8,2.2,2.2,0,0,1,1.7-.6H7.6v1.4H7c.5.2.7.7.7,1.4a3,3,0,0,1-.2,1,1,1,0,0,1-.5.6,1.1,1.1,0,0,1-.8.2,1,1,0,0,1-1-.5,2.1,2.1,0,0,1-.4-1.5V79.9a.8.8,0,0,0-.7.3,1.2,1.2,0,0,0-.3.9c0,.2.1.5.1.7a1.6,1.6,0,0,0,.4.7l-1,.5a3,3,0,0,1-.4-1A4.3,4.3,0,0,1,2.7,80.9Zm4,.1a1.5,1.5,0,0,0-.1-.7l-.5-.4H5.6v1q0,.9.6.9l.4-.2A1.3,1.3,0,0,0,6.7,81ZM2.8,72.2h4a2.8,2.8,0,0,1,2,.7,3.2,3.2,0,0,1,.6,2,6.1,6.1,0,0,1-.1,1.4l-.5,1-1-.5.4-.8a3.1,3.1,0,0,0,.1-1A1.5,1.5,0,0,0,8,74a1.2,1.2,0,0,0-1-.4H6.8a2.1,2.1,0,0,1,.6,1.6,2.7,2.7,0,0,1-.3,1.2l-.8.9a2.8,2.8,0,0,1-1.3.3,2.7,2.7,0,0,1-1.2-.3L3,76.4a2.7,2.7,0,0,1-.3-1.2,1.8,1.8,0,0,1,.7-1.6H2.8Zm3.4,2.7a1.2,1.2,0,0,0-.3-.9,1,1,0,0,0-.9-.4.9.9,0,0,0-.8.4,1.2,1.2,0,0,0-.3.9,1.4,1.4,0,0,0,.3.9,1.2,1.2,0,0,0,.8.4,1.3,1.3,0,0,0,.9-.4A1.4,1.4,0,0,0,6.2,74.9ZM2.7,69a3,3,0,0,1,.5-1.8,2.2,2.2,0,0,1,1.7-.6H7.6v1.3H7a1.6,1.6,0,0,1,.7,1.5,3,3,0,0,1-.2,1A1,1,0,0,1,7,71a1.1,1.1,0,0,1-.8.2,1,1,0,0,1-1-.5,2.1,2.1,0,0,1-.4-1.5V68a.8.8,0,0,0-.7.3,1.2,1.2,0,0,0-.3.9c0,.2.1.5.1.7a.9.9,0,0,0,.4.6l-1,.6a3,3,0,0,1-.4-1A4.3,4.3,0,0,1,2.7,69Zm4,.1a1.5,1.5,0,0,0-.1-.7,1,1,0,0,0-.5-.4H5.6v1q0,.9.6.9l.4-.2A1.3,1.3,0,0,0,6.7,69.1Zm.7-6.9a1.1,1.1,0,0,1,.2.6,1.3,1.3,0,0,1,.1.6,1.7,1.7,0,0,1-.5,1.3,1.5,1.5,0,0,1-1.2.5H4v.7H2.9v-.7H1.7V63.8H2.9V62.6H4v1.2H5.9l.5-.2a.5.5,0,0,0,.2-.4,1.4,1.4,0,0,0-.2-.6ZM2.7,59.5a2.6,2.6,0,0,1,.5-1.7,2.2,2.2,0,0,1,1.7-.6H7.6v1.3H7c.5.2.7.7.7,1.5a2.9,2.9,0,0,1-.2.9,1,1,0,0,1-.5.6,1.1,1.1,0,0,1-.8.3,1.2,1.2,0,0,1-1-.5,2.5,2.5,0,0,1-.4-1.6V58.6l-.7.2a1.2,1.2,0,0,0-.3.9c0,.2.1.5.1.7a1.6,1.6,0,0,0,.4.7l-1,.5a3,3,0,0,1-.4-1A3.6,3.6,0,0,1,2.7,59.5Zm4,.1a1.3,1.3,0,0,0-.1-.6.7.7,0,0,0-.5-.4H5.6v.9q0,.9.6.9l.4-.2A1.1,1.1,0,0,0,6.7,59.6ZM2.8,51.2l5.1,2.2a2.3,2.3,0,0,1,1.2.8,2.1,2.1,0,0,1,.3,1.2,1.7,1.7,0,0,1-.1.7,1.6,1.6,0,0,1-.3.6l-1-.5a.5.5,0,0,0,.2-.4c.1-.1.1-.2.1-.4s0-.3-.1-.4a1,1,0,0,0-.5-.4h0L2.8,56.7V55.3l3.3-1.4L2.8,52.5Zm4.6-4.8a1.4,1.4,0,0,1,.2.6,1.3,1.3,0,0,1,.1.6,1.7,1.7,0,0,1-.5,1.3,1.5,1.5,0,0,1-1.2.5H4v.7H2.9v-.7H1.7V48H2.9V46.8H4V48H5.9l.5-.2a.5.5,0,0,0,.2-.4,1.4,1.4,0,0,0-.2-.6Zm.3-2.9a3.2,3.2,0,0,1-.3,1.4,2,2,0,0,1-.9.9,2,2,0,0,1-1.3.4,2,2,0,0,1-1.3-.4,2,2,0,0,1-.9-.9,3.4,3.4,0,0,1,0-2.8,2,2,0,0,1,.9-.9,2.8,2.8,0,0,1,1.3-.4,2.8,2.8,0,0,1,1.3.4,2,2,0,0,1,.9.9A3.2,3.2,0,0,1,7.7,43.5Zm-1.2,0a1.2,1.2,0,0,0-.3-.9,1.7,1.7,0,0,0-1-.3,1.7,1.7,0,0,0-1,.3,1.5,1.5,0,0,0,0,1.8,1.7,1.7,0,0,0,1,.3,1.7,1.7,0,0,0,1-.3A1.2,1.2,0,0,0,6.5,43.5ZM2.7,37.1A2.8,2.8,0,0,1,3,35.8a2.4,2.4,0,0,1,.9-.8,2,2,0,0,1,1.3-.4,2,2,0,0,1,1.3.4,2.4,2.4,0,0,1,.9.8,2.8,2.8,0,0,1,.3,1.3,1.7,1.7,0,0,1-.6,1.4H9.4v1.4H2.8V38.6h.5A2,2,0,0,1,2.7,37.1Zm3.8.2a1.2,1.2,0,0,0-.3-.9,1.7,1.7,0,0,0-1-.3,1.7,1.7,0,0,0-1,.3,1.2,1.2,0,0,0-.3.9,1.4,1.4,0,0,0,.3.9,1.7,1.7,0,0,0,1,.3,1.7,1.7,0,0,0,1-.3A1.4,1.4,0,0,0,6.5,37.3Zm1.2-5.9a3.5,3.5,0,0,1-.3,1.4,2,2,0,0,1-.9.9,2.8,2.8,0,0,1-1.3.4,2.8,2.8,0,0,1-1.3-.4,2,2,0,0,1-.9-.9,3.5,3.5,0,0,1-.3-1.4A3.2,3.2,0,0,1,3,30a1.8,1.8,0,0,1,.9-.8l.6,1.1a1.1,1.1,0,0,0-.6,1.1,1.6,1.6,0,0,0,.3.9,1.7,1.7,0,0,0,1,.3,1.7,1.7,0,0,0,1-.3,1.6,1.6,0,0,0,.3-.9,1.1,1.1,0,0,0-.6-1.1l.6-1.1a3.2,3.2,0,0,1,.9.8A3.2,3.2,0,0,1,7.7,31.4ZM2.8,23.5H7.6v1.3H7a1.2,1.2,0,0,1,.5.7,2.4,2.4,0,0,1,.2.8,2.1,2.1,0,0,1-.6,1.6,2.3,2.3,0,0,1-1.6.5H2.8V27H5.3c.8,0,1.2-.3,1.2-1a.9.9,0,0,0-.4-.8,1.2,1.2,0,0,0-.9-.3H2.8Zm4.9-1.8a.9.9,0,0,1-.3.6c-.1.2-.3.2-.6.2s-.5,0-.6-.2a.9.9,0,0,1-.3-.6.9.9,0,0,1,.3-.7l.6-.2.6.2A.9.9,0,0,1,7.7,21.7Zm11,240.2a3.2,3.2,0,0,1-.3,1.4,2,2,0,0,1-.9.9,2,2,0,0,1-1.3.4,2,2,0,0,1-1.3-.4,2,2,0,0,1-.9-.9,3.2,3.2,0,0,1-.3-1.4,2.5,2.5,0,0,1,.3-1.3,2,2,0,0,1,.9-.9l.6,1.1a1.3,1.3,0,0,0-.6,1.1,1.2,1.2,0,0,0,.3.9,1.5,1.5,0,0,0,2,0,1.2,1.2,0,0,0,.3-.9,1.3,1.3,0,0,0-.6-1.1l.6-1.1a3.8,3.8,0,0,1,.9.9A2.5,2.5,0,0,1,18.7,261.9Zm-5-4.9a3,3,0,0,1,.5-1.8,2.2,2.2,0,0,1,1.7-.6h2.7v1.3H18a1.6,1.6,0,0,1,.7,1.5,3,3,0,0,1-.2,1,1,1,0,0,1-.5.6,1.1,1.1,0,0,1-.8.2,1,1,0,0,1-1-.5,2.1,2.1,0,0,1-.4-1.5V256a.8.8,0,0,0-.7.3,1.2,1.2,0,0,0-.3.9c0,.2.1.5.1.7a.9.9,0,0,0,.4.6l-1,.6a3,3,0,0,1-.4-1A4.3,4.3,0,0,1,13.7,257Zm4,.1a1.5,1.5,0,0,0-.1-.7,1,1,0,0,0-.5-.4h-.5v1q0,.9.6.9l.4-.2A1.3,1.3,0,0,0,17.7,257.1Zm-3.9-8.8h4a2.4,2.4,0,0,1,2,.7,3,3,0,0,1,.6,2,6.6,6.6,0,0,1-.1,1.4l-.5,1-1-.5c.1-.3.3-.5.4-.8a3.1,3.1,0,0,0,.1-1,1.5,1.5,0,0,0-.3-1,1.2,1.2,0,0,0-1-.4h-.2a2,2,0,0,1,.6,1.5,2.8,2.8,0,0,1-.3,1.3l-.8.8a2,2,0,0,1-1.3.4,1.9,1.9,0,0,1-1.2-.4,3,3,0,0,1-.8-.8,2.8,2.8,0,0,1-.3-1.3,1.9,1.9,0,0,1,.7-1.6h-.6Zm3.4,2.7a1.2,1.2,0,0,0-.3-.9,1,1,0,0,0-.9-.4.9.9,0,0,0-.8.4,1.2,1.2,0,0,0-.3.9,1.6,1.6,0,0,0,.3.9,1.1,1.1,0,0,0,.8.3,1.2,1.2,0,0,0,.9-.3A1.6,1.6,0,0,0,17.2,251Zm-3.5-5.9a3,3,0,0,1,.5-1.8,2.2,2.2,0,0,1,1.7-.6h2.7V244H18a1.6,1.6,0,0,1,.7,1.5,3,3,0,0,1-.2,1,1,1,0,0,1-.5.6,1.1,1.1,0,0,1-.8.2,1,1,0,0,1-1-.5,2.2,2.2,0,0,1-.4-1.6v-1.1a.8.8,0,0,0-.7.3,1.1,1.1,0,0,0-.3.8c0,.3.1.6.1.8a.9.9,0,0,0,.4.6l-1,.5a1.9,1.9,0,0,1-.4-.9A5.2,5.2,0,0,1,13.7,245.1Zm4,.1a1.5,1.5,0,0,0-.1-.7,1,1,0,0,0-.5-.4h-.5v1q0,.9.6.9a.5.5,0,0,0,.4-.3A.7.7,0,0,0,17.7,245.2Zm.7-6.9c.1.2.2.3.2.5a1.7,1.7,0,0,1,.1.7,1.7,1.7,0,0,1-.5,1.3,1.5,1.5,0,0,1-1.2.5H15v.7H13.9v-.7H12.7v-1.4h1.2v-1.2H15v1.2h1.9l.5-.2a.5.5,0,0,0,.2-.4,1.4,1.4,0,0,0-.2-.6Zm-4.7-2.7a2.6,2.6,0,0,1,.5-1.7,2.2,2.2,0,0,1,1.7-.6h2.7v1.3H18c.5.2.7.7.7,1.4a3,3,0,0,1-.2,1,1,1,0,0,1-.5.6,1.1,1.1,0,0,1-.8.3,1.1,1.1,0,0,1-1-.6,2.1,2.1,0,0,1-.4-1.5v-1.1l-.7.2a1.2,1.2,0,0,0-.3.9c0,.2.1.5.1.7a1.6,1.6,0,0,0,.4.7l-1,.5a3,3,0,0,1-.4-1A3.6,3.6,0,0,1,13.7,235.6Zm4,.1c0-.2,0-.5-.1-.6a.7.7,0,0,0-.5-.4h-.5v.9q0,.9.6.9l.4-.2A1.3,1.3,0,0,0,17.7,235.7Zm-3.9-8.4,5.1,2.2a2.3,2.3,0,0,1,1.2.8,2.1,2.1,0,0,1,.3,1.2,1.7,1.7,0,0,1-.1.7l-.3.6-1-.5a.5.5,0,0,0,.2-.4.6.6,0,0,0,.1-.4.9.9,0,0,0-.1-.5l-.5-.3h0l-4.9,2.1v-1.5l3.3-1.3-3.3-1.4Zm4.6-3.9c.1.2.2.3.2.5a1.7,1.7,0,0,1,.1.7,1.7,1.7,0,0,1-.5,1.3,1.5,1.5,0,0,1-1.2.5H15v.7H13.9v-.7H12.7V225h1.2v-1.2H15V225h1.9l.5-.2a.5.5,0,0,0,.2-.4,1.4,1.4,0,0,0-.2-.6Zm.3-2.9a3.2,3.2,0,0,1-.3,1.4,2,2,0,0,1-.9.9,2.8,2.8,0,0,1-1.3.4,2.8,2.8,0,0,1-1.3-.4,2,2,0,0,1-.9-.9,3.4,3.4,0,0,1,0-2.8,2,2,0,0,1,.9-.9,2.8,2.8,0,0,1,1.3-.4,2.8,2.8,0,0,1,1.3.4,2,2,0,0,1,.9.9A3.2,3.2,0,0,1,18.7,220.5Zm-1.2,0a1.2,1.2,0,0,0-.3-.9,1.8,1.8,0,0,0-2,0,1.5,1.5,0,0,0,0,1.8,1.8,1.8,0,0,0,2,0A1.2,1.2,0,0,0,17.5,220.5ZM13.7,214a2.7,2.7,0,0,1,.3-1.2,2.6,2.6,0,0,1,.9-.9,3,3,0,0,1,2.6,0,2.6,2.6,0,0,1,.9.9,2.7,2.7,0,0,1,.3,1.2,1.9,1.9,0,0,1-.6,1.5h2.3v1.4H13.8v-1.3h.5A2.1,2.1,0,0,1,13.7,214Zm3.8.3a1.2,1.2,0,0,0-.3-.9,1.8,1.8,0,0,0-2,0,1.2,1.2,0,0,0-.3.9,1.6,1.6,0,0,0,.3.9,1.8,1.8,0,0,0,2,0A1.6,1.6,0,0,0,17.5,214.3Zm1.2-5.9a2.8,2.8,0,0,1-.3,1.3,1.8,1.8,0,0,1-.9,1,2.8,2.8,0,0,1-1.3.4,2.8,2.8,0,0,1-1.3-.4,1.8,1.8,0,0,1-.9-1,2.8,2.8,0,0,1-.3-1.3A2.9,2.9,0,0,1,14,207a1.8,1.8,0,0,1,.9-.8l.6,1.1a1.1,1.1,0,0,0-.6,1.1,1.6,1.6,0,0,0,.3.9,1.8,1.8,0,0,0,2,0,1.6,1.6,0,0,0,.3-.9,1.1,1.1,0,0,0-.6-1.1l.6-1.1a3.2,3.2,0,0,1,.9.8A2.9,2.9,0,0,1,18.7,208.4Zm-4.9-7.9h4.8v1.3H18a1.2,1.2,0,0,1,.5.7,2.4,2.4,0,0,1,.2.8,1.8,1.8,0,0,1-.6,1.5,2,2,0,0,1-1.6.6H13.8V204h2.5c.8,0,1.2-.3,1.2-1a.9.9,0,0,0-.4-.8,1.2,1.2,0,0,0-.9-.3H13.8Zm-1.6-5.4a5.4,5.4,0,0,1,.5-2.2,5,5,0,0,1,1.4-1.5,4.6,4.6,0,0,1,2.1-.5l1.3.2.9.6a1.7,1.7,0,0,1,.3,1,1.9,1.9,0,0,1-.2.8c-.2.2-.3.4-.6.5a1.6,1.6,0,0,1,.8,1.5,1.7,1.7,0,0,1-.3,1,2,2,0,0,1-.8.8l-1.2.3-1.2-.3a2.7,2.7,0,0,1-.8-.7,2.3,2.3,0,0,1-.3-1.1,1.7,1.7,0,0,1,.6-1.4h-.5v-1.2h2.9c.4,0,.6-.2.6-.4s-.1-.4-.4-.5-.6-.2-1.1-.2a2.7,2.7,0,0,0-1.6.4,2.5,2.5,0,0,0-1.1,1.2,3.3,3.3,0,0,0-.4,1.7,3.2,3.2,0,0,0,1.6,3,3.8,3.8,0,0,0,1.6.4,4.3,4.3,0,0,0,1.7-.4,3.4,3.4,0,0,0,1.2-1.2,3.3,3.3,0,0,0,.4-1.7,3.4,3.4,0,0,0-.4-1.8l.8-.3a3,3,0,0,1,.4,1c0,.3.1.7.1,1.1a4,4,0,0,1-.6,2.2,2.9,2.9,0,0,1-1.4,1.5,4.3,4.3,0,0,1-2.2.6,3.9,3.9,0,0,1-2.1-.6,2.9,2.9,0,0,1-1.4-1.5A4.1,4.1,0,0,1,12.2,195.1Zm5.4.1a1.1,1.1,0,0,0-.3-.8,1.2,1.2,0,0,0-.9-.3,1.2,1.2,0,0,0-.9.3,1.1,1.1,0,0,0-.3.8,1,1,0,0,0,.3.8,1.2,1.2,0,0,0,.9.3,1.2,1.2,0,0,0,.9-.3A1,1,0,0,0,17.6,195.2Zm-3.8-10.3h4a2.4,2.4,0,0,1,2,.7,2.8,2.8,0,0,1,.6,2,5.3,5.3,0,0,1-.1,1.3,5.8,5.8,0,0,1-.5,1.1l-1-.6a2.9,2.9,0,0,0,.4-.8,2.8,2.8,0,0,0,.1-.9,1.8,1.8,0,0,0-.3-1.1,1.5,1.5,0,0,0-1-.3h-.2a2,2,0,0,1,.6,1.5,2.1,2.1,0,0,1-.3,1.2,2.4,2.4,0,0,1-.8.9,2.8,2.8,0,0,1-1.3.3l-1.2-.3a2.4,2.4,0,0,1-.8-.9,2.1,2.1,0,0,1-.3-1.2,1.9,1.9,0,0,1,.7-1.6h-.6Zm3.4,2.6a1.6,1.6,0,0,0-.3-.9,1.2,1.2,0,0,0-.9-.3,1.1,1.1,0,0,0-.8.3,1.6,1.6,0,0,0-.3.9,1.7,1.7,0,0,0,.3,1,1.1,1.1,0,0,0,.8.3,1.2,1.2,0,0,0,.9-.3A1.7,1.7,0,0,0,17.2,187.5Zm-3.5-10.1a2.5,2.5,0,0,1,.5-1.5,2.5,2.5,0,0,1,1.6-.5h2.8v1.4H16.1l-.9.2a.9.9,0,0,0-.3.7,1.1,1.1,0,0,0,.3.8,1.5,1.5,0,0,0,1,.3h2.4v1.4H16.1q-1.2,0-1.2.9a1.1,1.1,0,0,0,.3.8,1.5,1.5,0,0,0,1,.3h2.4v1.4H13.8v-1.4h.5c-.2-.1-.3-.4-.4-.6a2.1,2.1,0,0,1,0-1.8,1.3,1.3,0,0,1,.6-.7,1.3,1.3,0,0,1-.6-.7A3.6,3.6,0,0,1,13.7,177.4Zm0-5.2a2.6,2.6,0,0,1,.5-1.7,2.2,2.2,0,0,1,1.7-.6h2.7v1.3H18c.5.2.7.7.7,1.4a3,3,0,0,1-.2,1,1,1,0,0,1-.5.6,1.1,1.1,0,0,1-.8.3,1.1,1.1,0,0,1-1-.6,2.1,2.1,0,0,1-.4-1.5v-1.1c-.3,0-.6,0-.7.2a1.2,1.2,0,0,0-.3.9c0,.2.1.5.1.7a1.6,1.6,0,0,0,.4.7l-1,.5a3,3,0,0,1-.4-1A3.6,3.6,0,0,1,13.7,172.2Zm4,.1c0-.2,0-.5-.1-.6a.7.7,0,0,0-.5-.4h-.5v.9q0,.9.6.9l.4-.2A1.3,1.3,0,0,0,17.7,172.3Zm-3.9-3.7v-1.4h4.8v1.4Zm-.7-.7a1.4,1.4,0,0,1-.2.6l-.6.3a.5.5,0,0,1-.5-.3.9.9,0,0,1-.3-.6.8.8,0,0,1,.2-.6.8.8,0,0,1,1.2,0A.8.8,0,0,1,13.1,167.9Zm-1.2-2v-1.4h6.7v1.4Zm6.8-3.3a.9.9,0,0,1-.3.7l-.6.2-.6-.2a.9.9,0,0,1-.3-.7.9.9,0,0,1,.3-.6c.1-.2.3-.2.6-.2s.5,0,.6.2A.9.9,0,0,1,18.7,162.6Zm0-4.1a3.2,3.2,0,0,1-.3,1.4,2.2,2.2,0,0,1-.9,1,3,3,0,0,1-2.6,0,2.2,2.2,0,0,1-.9-1,3.2,3.2,0,0,1-.3-1.4,2.8,2.8,0,0,1,.3-1.3,1.4,1.4,0,0,1,.9-.8l.6,1.1a1.1,1.1,0,0,0-.6,1,1.2,1.2,0,0,0,.3.9,1.4,1.4,0,0,0,2,0,1.2,1.2,0,0,0,.3-.9,1.1,1.1,0,0,0-.6-1l.6-1.1a2.2,2.2,0,0,1,.9.8A2.8,2.8,0,0,1,18.7,158.5Zm0-5.2a3.2,3.2,0,0,1-.3,1.4,2,2,0,0,1-.9.9,2,2,0,0,1-1.3.4,2,2,0,0,1-1.3-.4,2,2,0,0,1-.9-.9,3.4,3.4,0,0,1,0-2.8,2,2,0,0,1,.9-.9,3,3,0,0,1,2.6,0,2,2,0,0,1,.9.9A3.2,3.2,0,0,1,18.7,153.3Zm-1.2,0a1.6,1.6,0,0,0-.3-.9,1.8,1.8,0,0,0-2,0,1.6,1.6,0,0,0-.3.9,1.2,1.2,0,0,0,.3.9,1.8,1.8,0,0,0,1,.4,1.8,1.8,0,0,0,1-.4A1.2,1.2,0,0,0,17.5,153.3Zm-3.8-9.8a2,2,0,0,1,.5-1.4,2.1,2.1,0,0,1,1.6-.6h2.8v1.4H16.1a1.2,1.2,0,0,0-.9.3,1,1,0,0,0,0,1.4,1.5,1.5,0,0,0,1,.3h2.4v1.4H16.1c-.8,0-1.2.3-1.2,1a.9.9,0,0,0,.3.7,1.5,1.5,0,0,0,1,.3h2.4v1.4H13.8v-1.3h.5a1.6,1.6,0,0,1-.4-.7,1.9,1.9,0,0,1-.2-.8,3,3,0,0,1,.2-1,1.2,1.2,0,0,1,.6-.6,1.6,1.6,0,0,1-.6-.8A3,3,0,0,1,13.7,143.5Zm1.8-5.6v-2.5h1.1v2.5ZM16,125v1.5h1.5v1.2H16v1.6H14.9v-1.6H13.4v-1.2h1.5V125Zm-3.8-3.1a2.9,2.9,0,0,1,.8-2.1,3.4,3.4,0,0,1,2.3-.8,5.3,5.3,0,0,1,1.9.4,2.5,2.5,0,0,1,1.1,1.2,3.1,3.1,0,0,1,.4,1.7,2.8,2.8,0,0,1-.1.9l-.3.8-1.1-.5a2.1,2.1,0,0,0,.3-1.2,1.7,1.7,0,0,0-.4-1.3,2.2,2.2,0,0,0-1.4-.5,2.1,2.1,0,0,1,.6,1.6,2.3,2.3,0,0,1-.3,1.1,1.8,1.8,0,0,1-.7.8l-1,.2a2,2,0,0,1-1.1-.3,1.8,1.8,0,0,1-.7-.8A2.7,2.7,0,0,1,12.2,121.9Zm3-.2a1,1,0,0,0-1-1,.7.7,0,0,0-.6.3,1,1,0,0,0-.3.8,1.4,1.4,0,0,0,.2.7.9.9,0,0,0,.7.3.8.8,0,0,0,.7-.3A1,1,0,0,0,15.2,121.7Zm3.5-6.1a2.1,2.1,0,0,1-.4,1.4,2.2,2.2,0,0,1-1.1,1,4.7,4.7,0,0,1-1.7.3,4.8,4.8,0,0,1-1.8-.3,2.7,2.7,0,0,1-1.1-1,2.1,2.1,0,0,1-.4-1.4,2.3,2.3,0,0,1,.4-1.4,2.4,2.4,0,0,1,1.1-.9,4.8,4.8,0,0,1,1.8-.4,4.7,4.7,0,0,1,1.7.4,2,2,0,0,1,1.1.9A2.3,2.3,0,0,1,18.7,115.6Zm-1.2,0a1.4,1.4,0,0,0-.5-.9,2.8,2.8,0,0,0-1.5-.3,3.5,3.5,0,0,0-1.6.3,1.4,1.4,0,0,0-.5.9,1.1,1.1,0,0,0,.5.9,2.5,2.5,0,0,0,1.6.4,2.1,2.1,0,0,0,1.5-.4A1.1,1.1,0,0,0,17.5,115.6Zm-2.8-8.1a3.1,3.1,0,0,1,.5-1.9,1.6,1.6,0,0,1,1.4-.7,2,2,0,0,1,1.1.3,1.6,1.6,0,0,1,.7.9,3.2,3.2,0,0,1,.3,1.4,2.7,2.7,0,0,1-.2,1.3,1.9,1.9,0,0,1-.5,1.1l-1.1-.5a4.1,4.1,0,0,0,.5-.9,2.8,2.8,0,0,0,.1-.9,2,2,0,0,0-.2-.9.9.9,0,0,0-.6-.3.6.6,0,0,0-.6.3c-.2.2-.2.6-.2,1.2v1.6l-3.6-.4v-3.8h1.2v2.6h1.2Zm.2-6.1a2.3,2.3,0,0,1,.6-1.2,1.7,1.7,0,0,1,1.2-.5,1.7,1.7,0,0,1,1,.3,1.6,1.6,0,0,1,.7.9,3.2,3.2,0,0,1,.3,1.4,2.7,2.7,0,0,1-.2,1.3,1.9,1.9,0,0,1-.5,1.1l-1.1-.5a4.1,4.1,0,0,0,.5-.9,2.8,2.8,0,0,0,.1-.9,2,2,0,0,0-.2-.9.9.9,0,0,0-.6-.3c-.5,0-.8.4-.8,1.2v.6H15l-1.5-1.3v2.7H12.3V100h1ZM14.7,97a3.4,3.4,0,0,1,.5-2,1.8,1.8,0,0,1,1.4-.6,2,2,0,0,1,1.1.3,1.1,1.1,0,0,1,.7.8,3.3,3.3,0,0,1,.3,1.5,3,3,0,0,1-.2,1.3,2.2,2.2,0,0,1-.5,1.1l-1.1-.6a2.2,2.2,0,0,0,.5-.8,3.1,3.1,0,0,0,.1-1,1.9,1.9,0,0,0-.2-.8c-.2-.2-.4-.4-.6-.4a.7.7,0,0,0-.6.4c-.2.2-.2.6-.2,1.1v1.6l-3.6-.3V94.8h1.2v2.6h1.2Zm0-8.8a2,2,0,0,1,.2-1.1,2.7,2.7,0,0,1,.7-.8,1.7,1.7,0,0,1,1-.3,2,2,0,0,1,1.1.3,2.3,2.3,0,0,1,.8.9,5,5,0,0,1,.2,1.2,2.5,2.5,0,0,1-.8,2.1,3.2,3.2,0,0,1-2.3.7,3.4,3.4,0,0,1-1.8-.4,2.5,2.5,0,0,1-1.2-1.1,3.1,3.1,0,0,1-.4-1.7,3.8,3.8,0,0,1,.1-1l.3-.7,1.1.5a2.1,2.1,0,0,0-.3,1.2,1.7,1.7,0,0,0,.5,1.2,1.8,1.8,0,0,0,1.3.6A2.5,2.5,0,0,1,14.7,88.2Zm2.9.3a1.1,1.1,0,0,0-.2-.8,1,1,0,0,0-1.4,0,1.7,1.7,0,0,0,0,1.6,1,1,0,0,0,1.4,0A1.9,1.9,0,0,0,17.6,88.5Zm-2.3-7.3a2.2,2.2,0,0,1,.6-.7,1.6,1.6,0,0,1,.9-.3,1.3,1.3,0,0,1,1,.4,2.2,2.2,0,0,1,.7.9,5,5,0,0,1,0,2.8,2.2,2.2,0,0,1-.7.9,1.7,1.7,0,0,1-1,.3l-.9-.2-.6-.7a1.2,1.2,0,0,1-.5.5l-.8.2a1.2,1.2,0,0,1-.9-.3,2.2,2.2,0,0,1-.7-.9,3.7,3.7,0,0,1-.2-1.2,5.1,5.1,0,0,1,.2-1.3,1.9,1.9,0,0,1,.7-.8,1,1,0,0,1,.9-.4l.8.2C15,80.8,15.2,80.9,15.3,81.2Zm-2,1.7a1.4,1.4,0,0,0,.2.7.6.6,0,0,0,.6.3.5.5,0,0,0,.5-.3.8.8,0,0,0,.2-.7c0-.3,0-.6-.2-.7a.5.5,0,0,0-.5-.3.6.6,0,0,0-.6.3A1.2,1.2,0,0,0,13.3,82.9Zm4.4,0a1.2,1.2,0,0,0-.3-.9.9.9,0,0,0-.7-.3.7.7,0,0,0-.6.3,1.2,1.2,0,0,0-.3.9,1.1,1.1,0,0,0,.3.8.6.6,0,0,0,.6.4.8.8,0,0,0,.7-.4A1.1,1.1,0,0,0,17.7,82.9Zm-5.5-5.6a2.8,2.8,0,0,1,.8-2,3.4,3.4,0,0,1,2.3-.8,5.3,5.3,0,0,1,1.9.4,2.5,2.5,0,0,1,1.1,1.2,2.7,2.7,0,0,1,.4,1.6,3.1,3.1,0,0,1-.1,1l-.3.8-1.1-.6a2,2,0,0,0,.3-1.1,1.7,1.7,0,0,0-.4-1.3,2.2,2.2,0,0,0-1.4-.5,2.1,2.1,0,0,1,.6,1.6,2.3,2.3,0,0,1-.3,1.1,1.6,1.6,0,0,1-.7.7,1.7,1.7,0,0,1-1,.3,2,2,0,0,1-1.1-.3,1.8,1.8,0,0,1-.7-.8A2.8,2.8,0,0,1,12.2,77.3Zm3-.1a1,1,0,0,0-1-1l-.6.2a1.2,1.2,0,0,0-.3.9,1.4,1.4,0,0,0,.2.7.9.9,0,0,0,.7.3.8.8,0,0,0,.7-.3A1,1,0,0,0,15.2,77.2Zm-.5-8.1a3.7,3.7,0,0,1,.5-2,1.8,1.8,0,0,1,1.4-.6,2,2,0,0,1,1.1.3,1.6,1.6,0,0,1,.7.9,3.2,3.2,0,0,1,.3,1.4,2.7,2.7,0,0,1-.2,1.3,1.9,1.9,0,0,1-.5,1.1L16.9,71a4.1,4.1,0,0,0,.5-.9,2.8,2.8,0,0,0,.1-.9,2,2,0,0,0-.2-.9.9.9,0,0,0-.6-.3.6.6,0,0,0-.6.3c-.2.2-.2.6-.2,1.2v1.6l-3.6-.4V66.9h1.2v2.6h1.2Zm4-5.9a2.3,2.3,0,0,1-.4,1.4,2.7,2.7,0,0,1-1.1,1,4.7,4.7,0,0,1-1.7.3,4.8,4.8,0,0,1-1.8-.3,3.6,3.6,0,0,1-1.1-1,2.6,2.6,0,0,1,0-2.8,2.4,2.4,0,0,1,1.1-.9,3.4,3.4,0,0,1,1.8-.4,3.3,3.3,0,0,1,1.7.4,2,2,0,0,1,1.1.9A2.3,2.3,0,0,1,18.7,63.2Zm-1.2,0a1.1,1.1,0,0,0-.5-.9,2.8,2.8,0,0,0-1.5-.3,3.5,3.5,0,0,0-1.6.3,1.1,1.1,0,0,0,0,1.8,3.5,3.5,0,0,0,1.6.3,2.8,2.8,0,0,0,1.5-.3A1.1,1.1,0,0,0,17.5,63.2Zm-2.8-8.1a3.7,3.7,0,0,1,.5-2,1.8,1.8,0,0,1,1.4-.6,2,2,0,0,1,1.1.3,1.6,1.6,0,0,1,.7.9,2.9,2.9,0,0,1,.3,1.4,2.7,2.7,0,0,1-.2,1.3,1.9,1.9,0,0,1-.5,1.1l-1.1-.6a2.2,2.2,0,0,0,.5-.8,2.8,2.8,0,0,0,.1-.9,2,2,0,0,0-.2-.9.9.9,0,0,0-.6-.3.6.6,0,0,0-.6.3c-.2.2-.2.6-.2,1.1v1.7l-3.6-.4V52.9h1.2v2.6h1.2Zm.2-6.1a2.6,2.6,0,0,1,.6-1.3,1.6,1.6,0,0,1,1.2-.4,1.7,1.7,0,0,1,1,.3,1.6,1.6,0,0,1,.7.9,2.9,2.9,0,0,1,.3,1.4,2.7,2.7,0,0,1-.2,1.3,2.2,2.2,0,0,1-.5,1.1l-1.1-.6a2.2,2.2,0,0,0,.5-.8,3.1,3.1,0,0,0,.1-1,1.9,1.9,0,0,0-.2-.8.9.9,0,0,0-.6-.3c-.5,0-.8.4-.8,1.1v.7H15l-1.5-1.3V52H12.3V47.6h1Zm.6-5V41.4h1.1V44Zm-3.2-6.3V36.2h6.3v1.5Zm6.4-4.5a5,5,0,0,1-.2,1.2l-.3.9-1-.5.3-.8a2.8,2.8,0,0,0,.1-.9c0-.6-.1-.9-.4-.9a.3.3,0,0,0-.3.3c-.1.1-.1.4-.2.7a3,3,0,0,1-.2,1,1,1,0,0,1-.4.7,1.2,1.2,0,0,1-1.6,0,1.2,1.2,0,0,1-.6-.8,3.7,3.7,0,0,1-.2-1.2,3.4,3.4,0,0,1,.1-1l.3-.8,1,.4a3.2,3.2,0,0,0-.3,1.4,1.5,1.5,0,0,0,.1.7l.3.2c.2,0,.3-.1.3-.2a4.5,4.5,0,0,0,.2-.8c.1-.4.1-.7.2-1a2.1,2.1,0,0,1,.4-.6,1.1,1.1,0,0,1,.8-.3l.9.3a1.3,1.3,0,0,1,.5.7A5.1,5.1,0,0,1,18.7,33.2Zm-.3-6.3a.8.8,0,0,1,.2.5,1.3,1.3,0,0,1,.1.6,2,2,0,0,1-.5,1.4,1.5,1.5,0,0,1-1.2.5H15v.7H13.9v-.7H12.7V28.5h1.2V27.2H15v1.3h1.9l.5-.2a.8.8,0,0,0,.2-.4.8.8,0,0,0-.2-.6Zm-4.7-2.7a3,3,0,0,1,.5-1.8,2.2,2.2,0,0,1,1.7-.6h2.7v1.3H18a1.6,1.6,0,0,1,.7,1.5,3,3,0,0,1-.2,1,1,1,0,0,1-.5.6,1.1,1.1,0,0,1-.8.2,1,1,0,0,1-1-.5,2.2,2.2,0,0,1-.4-1.6V23.2a.8.8,0,0,0-.7.3,1.1,1.1,0,0,0-.3.8c0,.3.1.6.1.8a.9.9,0,0,0,.4.6l-1,.5a1.9,1.9,0,0,1-.4-.9A4.3,4.3,0,0,1,13.7,24.2Zm4,.1a1.5,1.5,0,0,0-.1-.7,1,1,0,0,0-.5-.4h-.5v1q0,.9.6.9a.5.5,0,0,0,.4-.3A.7.7,0,0,0,17.7,24.3Zm-4-6.7a2,2,0,0,1,.5-1.4,2.1,2.1,0,0,1,1.6-.6h2.8V17H16.1a1.2,1.2,0,0,0-.9.3.8.8,0,0,0-.3.7,1.1,1.1,0,0,0,.3.8,1.3,1.3,0,0,0,1,.4h2.4v1.4H13.8V19.2h.5a1.6,1.6,0,0,1-.4-.7A2.4,2.4,0,0,1,13.7,17.6Zm0-6.1a2.1,2.1,0,0,1,.3-1.2,2,2,0,0,1,.9-.9,3,3,0,0,1,2.6,0,2,2,0,0,1,.9.9,2.1,2.1,0,0,1,.3,1.2,1.9,1.9,0,0,1-.6,1.5h.5v1.3H11.9V12.9h2.4A1.7,1.7,0,0,1,13.7,11.5Zm3.8.2a1.6,1.6,0,0,0-.3-.9,1.8,1.8,0,0,0-2,0,1.6,1.6,0,0,0-.3.9,1.2,1.2,0,0,0,.3.9,1.8,1.8,0,0,0,1,.4,1.8,1.8,0,0,0,1-.4A1.2,1.2,0,0,0,17.5,11.7ZM13.8,3.3h4.8V4.6H18a1.2,1.2,0,0,1,.5.7,1.9,1.9,0,0,1,.2.8,2,2,0,0,1-.6,1.5,2,2,0,0,1-1.6.6H13.8V6.8h2.5c.8,0,1.2-.4,1.2-1a.8.8,0,0,0-.4-.8,1.2,1.2,0,0,0-.9-.3H13.8ZM11.9,1.9V.5h6.7V1.9Z" transform="translate(-1.7 -0.5)"/>
  <path class="cls-1" d="M7.7,21.7a.9.9,0,0,1-.3.6l-.6.2a.8.8,0,0,1-.6-.2.9.9,0,0,1-.3-.6.9.9,0,0,1,.3-.7l.6-.2.6.2A.9.9,0,0,1,7.7,21.7Z" transform="translate(-1.7 -0.5)"/>
  <path class="cls-1" d="M7.7,17.6a2.8,2.8,0,0,1-.3,1.3,1.8,1.8,0,0,1-.9,1,2.8,2.8,0,0,1-1.3.4,2.8,2.8,0,0,1-1.3-.4,1.8,1.8,0,0,1-.9-1,2.8,2.8,0,0,1-.3-1.3A2.9,2.9,0,0,1,3,16.2a1.8,1.8,0,0,1,.9-.8l.6,1.1a1.1,1.1,0,0,0-.6,1.1,1.6,1.6,0,0,0,.3.9,1.7,1.7,0,0,0,1,.3,1.7,1.7,0,0,0,1-.3,1.6,1.6,0,0,0,.3-.9,1.1,1.1,0,0,0-.6-1.1l.6-1.1a3.2,3.2,0,0,1,.9.8A2.9,2.9,0,0,1,7.7,17.6Z" transform="translate(-1.7 -0.5)"/>
  <path class="cls-1" d="M7.4,11a2.2,2.2,0,0,0-.9-1,2.8,2.8,0,0,0-1.3-.3,2.8,2.8,0,0,0-1.3.3A2.2,2.2,0,0,0,3,11a2.8,2.8,0,0,0-.3,1.3A3.2,3.2,0,0,0,3,13.7a2.8,2.8,0,0,0,.9,1,2.8,2.8,0,0,0,1.3.3,2.8,2.8,0,0,0,1.3-.3,2.8,2.8,0,0,0,.9-1,3.2,3.2,0,0,0,.3-1.4A2.8,2.8,0,0,0,7.4,11ZM6.2,13.2a1.3,1.3,0,0,1-1,.4,1.3,1.3,0,0,1-1-.4,1.2,1.2,0,0,1-.3-.9,1.6,1.6,0,0,1,.3-.9,1.7,1.7,0,0,1,1-.3,1.7,1.7,0,0,1,1,.3,1.6,1.6,0,0,1,.3.9A1.2,1.2,0,0,1,6.2,13.2Z" transform="translate(-1.7 -0.5)"/>
  <path class="cls-1" d="M2.7,2.5a2.2,2.2,0,0,1,.5-1.4A2.1,2.1,0,0,1,4.8.6H7.6V2H5.1c-.4,0-.7,0-.9.2a.9.9,0,0,0-.3.7,1.1,1.1,0,0,0,.3.8,1.5,1.5,0,0,0,1,.3H7.6V5.4H5.1q-1.2,0-1.2.9a.8.8,0,0,0,.3.7,1.5,1.5,0,0,0,1,.3H7.6V8.7H2.8V7.4h.5a1.6,1.6,0,0,1-.4-.7,1.9,1.9,0,0,1-.2-.8A2,2,0,0,1,2.9,5a1.3,1.3,0,0,1,.6-.7,1.6,1.6,0,0,1-.6-.8A3,3,0,0,1,2.7,2.5Z" transform="translate(-1.7 -0.5)"/>
</svg>
