<?xml version="1.0" encoding="UTF-8"?>
<svg width="207px" height="49px" viewBox="0 0 207 49" version="1.1" xmlns="http://www.w3.org/2000/svg" xmlns:xlink="http://www.w3.org/1999/xlink">
    <!-- Generator: Sketch 50 (54983) - http://www.bohemiancoding.com/sketch -->
    <title>Group 2</title>
    <desc>Created with Sketch.</desc>
    <defs>
        <polygon id="path-1" points="0 0 69.469869 0 69.469869 16.9698603 0 16.9698603"></polygon>
    </defs>
    <g id="Page-1" stroke="none" stroke-width="1" fill="none" fill-rule="evenodd">
        <g id="Desktop-HD-Copy-2" transform="translate(-66.000000, -89.000000)">
            <g id="Group-2" transform="translate(66.000000, 89.000000)">
                <g id="Group" transform="translate(21.000000, 6.000000)">
                    <g id="Page-1">
                        <mask id="mask-2" fill="white">
                            <use xlink:href="#path-1"></use>
                        </mask>
                        <g id="Clip-2"></g>
                        <path d="M60.7091306,12.6616817 C60.3350563,10.7720092 61.3016066,9.5308607 62.2980738,9.39478646 C62.6463882,9.33910961 63.1511175,9.56471223 63.2517812,9.98659432 C63.4172528,10.7815114 63.2278031,11.9606729 60.9975367,13.4569699 C61.0008773,13.4697384 60.7924231,13.0824502 60.7091306,12.6616817 M55.813576,1.71702227 C56.9783358,1.59638908 56.930231,6.68265546 54.5923969,9.89365109 C54.2909996,8.73312271 53.8287332,2.11559432 55.813576,1.71702227 M45.6253795,8.45236288 C45.4671087,7.2619917 45.4588686,1.95546769 46.732755,2.10156376 C47.4361393,2.38648079 46.2868205,7.39398297 45.6253795,8.45236288 M36.3969777,8.37857249 C36.2386328,7.18820131 36.2304668,1.88160306 37.5043533,2.02769913 C38.2077376,2.31261616 37.0583445,7.32011834 36.3969777,8.37857249 M27.0947114,8.37857249 C26.9363664,7.18820131 26.9282004,1.88160306 28.2020869,2.02769913 C28.9054712,2.31261616 27.7560782,7.32011834 27.0947114,8.37857249 M7.34434891,10.4685332 C7.2860738,10.3755157 7.29817424,10.4326773 7.2329952,10.3448563 C6.97591659,9.64540655 6.48039258,8.08422751 6.4230083,6.3108083 C6.35805197,4.305031 6.69241004,1.9538345 7.67803886,1.9538345 C8.34593843,1.9538345 9.05570699,6.71895677 7.34434891,10.4685332 M3.92623537,15.3211795 C2.52354978,15.3211795 1.62410873,14.0241314 1.62410873,12.6257515 C1.62410873,11.2272974 2.44968515,9.93024934 3.85244498,9.93024934 C4.48367205,9.93024934 4.83465895,9.9998083 5.32632271,10.4273323 C5.41562838,10.7786162 5.66810437,11.5889742 5.79118734,11.9569611 C5.95576812,12.449293 6.15175066,12.8684284 6.34929214,13.3245332 C6.0670476,14.4945638 5.14184672,15.3211795 3.92623537,15.3211795 M68.7363227,11.7478389 C68.5174013,11.5937996 68.3482179,11.5683367 68.2080607,11.8673585 C65.790052,17.1041751 61.7155454,14.4910004 62.1203533,14.720983 C63.0241742,14.3074153 65.4011306,12.401114 65.0418293,9.76893493 C64.8236502,8.16017074 63.4430127,7.44669039 61.9773751,7.70221004 C59.4192834,8.14814454 58.4781218,10.907341 58.9572397,13.3502188 C59.0411262,13.7697253 59.1909341,14.1158127 59.3405192,14.4546991 C56.4497026,16.8054502 55.3017201,12.3501882 55.1714362,11.8178432 C55.1662397,11.7893367 57.4036328,9.92453319 58.0258031,5.48070349 C58.6780389,0.82329738 57.1923576,-0.0246240175 55.6728991,0.00187816594 C52.8616633,0.0508737991 52.1020825,5.92470786 53.1226022,10.820114 C53.0371568,10.8423847 52.6393271,11.0626424 52.0001568,11.0872886 C51.5401175,9.64013581 49.5748729,8.37152009 49.0603445,8.86021441 C47.7729472,10.0833236 49.3725803,12.4740878 50.4979952,12.6616817 C49.8219297,16.8258651 45.593755,15.794507 46.3808031,10.5773629 C47.7577288,8.02045895 48.8049734,4.21847205 48.6179734,1.92324934 C48.5518293,1.11066419 47.9511131,0.0219218341 46.5921524,0.0757427948 C43.9788293,0.179227511 43.6948031,6.05469476 44.0012485,10.2247428 C43.9859559,10.1220747 43.8406022,10.7314022 42.7696764,11.0344328 C42.5162354,9.62825808 40.2522659,8.21681266 39.7191786,8.89547642 C38.7215978,10.1655026 40.4504755,12.429769 41.2695934,12.587817 C40.5934537,16.7520747 36.365279,15.7206424 37.1524013,10.5034983 C38.5293271,7.94666856 39.5764974,4.14468166 39.3895716,1.84945895 C39.3234275,1.03679956 38.7226371,-0.0519427948 37.3636764,0.00187816594 C34.7503533,0.105362882 34.4663271,5.98083013 34.7727725,10.1508782 C34.7572572,10.0466511 34.6084886,10.6758738 33.4939122,10.974079 C33.4565716,9.1498083 31.1842878,8.31331921 30.6384319,8.89547642 C29.6656459,9.93292183 30.8611393,12.0617821 31.9673271,12.587817 C31.2912616,16.7520747 27.0630127,15.7206424 27.8501349,10.5034983 C29.2270607,7.94666856 30.2741568,4.14468166 30.0873052,1.84945895 C30.0210869,1.03679956 29.4203707,-0.0519427948 28.0614843,0.00187816594 C25.4481611,0.105362882 25.2379253,6.27621441 25.5442965,10.4462624 C24.6835323,14.1341489 21.7969472,18.7398127 22.171838,9.51371223 C22.2088817,8.86667293 22.2493402,8.62072969 21.9267856,8.37857249 C21.6848511,8.19016201 21.1351349,8.28072969 20.8347026,8.28830175 C20.4693882,8.3029262 20.377707,8.51672533 20.2970127,8.83965109 C20.1088991,9.6739131 20.0751961,10.4825638 20.0483227,11.5859306 C20.0307288,12.1020179 19.989231,12.3429131 19.7906502,13.0466686 C19.5919952,13.750424 18.4595279,15.0364852 17.839362,14.8215725 C16.9791917,14.5255201 17.2612135,12.0972668 17.4225279,10.4287428 C17.5568948,9.11009214 17.1268467,8.51798734 16.0247419,8.30270349 C15.3796328,8.16818821 14.9875192,8.18882576 14.3157594,7.97710524 C13.6803009,7.77681703 13.5365061,6.57479083 12.1815541,6.97544148 C11.4400869,7.19465983 11.9166066,8.76526681 11.7385891,9.92935852 C10.8626808,15.6552406 9.04026594,15.8124721 8.19486856,13.0309306 C12.0024974,3.70550262 9.29630524,0.0290484716 7.71241004,0.0290484716 C6.06251921,0.0290484716 4.17641004,1.16545022 4.97503886,8.43692183 C4.58671135,8.32363799 4.46741441,8.26269039 4.04234017,8.26269039 C1.63806507,8.26269039 -2.22707424e-05,10.2062581 -2.22707424e-05,12.6037777 C-2.22707424e-05,15.0012974 1.63806507,16.9447908 4.04234017,16.9447908 C5.46158035,16.9447908 6.45797336,16.299459 7.21265459,15.3009131 C7.70498646,16.0060048 8.30458908,16.9557035 9.40105197,16.9130179 C12.6692834,16.7857777 13.6198729,10.0817646 13.7318948,9.70776463 C14.0813227,9.76165983 14.411969,9.86358559 14.7344493,9.91740655 C15.2721393,9.99817511 15.3110389,10.2108607 15.2989384,10.7516686 C15.1565541,15.3110092 15.9978686,16.9075245 17.9063969,16.9075245 C18.9696764,16.9075245 19.9175934,15.8628782 20.5704231,15.115769 C21.0580782,16.1221838 21.8351044,16.8767908 22.8775978,16.9075245 C25.4036197,16.9702537 26.3707638,12.9441489 26.2825716,13.4739699 C26.2133838,13.8897646 27.1020607,16.8848083 29.702541,16.8956467 C32.9238555,16.9090834 33.5225672,13.3667734 33.5940563,12.7733323 C33.6029646,12.6552231 33.6068249,12.6676948 33.5940563,12.7733323 C33.5932397,12.7843934 33.5924231,12.7961227 33.5915323,12.8094109 C34.6141306,12.6192188 35.1418729,12.0709131 35.1418729,12.0709131 C35.1418729,12.0709131 35.9629952,16.9507297 39.0048817,16.8956467 C42.1633926,16.8384852 42.7589865,13.6363978 42.8373795,13.0120004 C42.847624,12.8638258 42.8537856,12.8811969 42.8373795,13.0120004 C42.8369341,13.018162 42.8364886,13.0235812 42.8360432,13.0303367 C44.050838,12.5883367 44.3702747,12.1447777 44.3702747,12.1447777 C44.3702747,12.1447777 45.0230301,16.9276424 48.2332834,16.9695114 C51.0940345,17.006852 52.1541961,14.0774328 52.1605061,12.8512057 C52.6429646,12.8563279 53.5355017,12.5650266 53.514493,12.5483236 C53.514493,12.5483236 54.5624799,16.7301009 57.4886328,16.9447908 C58.8626633,17.0456773 59.893279,16.1718476 60.4808555,15.7731271 C61.8615672,16.891341 66.4592135,18.3194895 69.362279,13.3975812 C69.7719122,12.6912275 68.8910301,11.8566686 68.7363227,11.7478389 M21.2254057,6.82778646 C22.0204712,6.82778646 22.6650607,6.18304847 22.6650607,5.38776026 C22.6650607,4.59239782 22.0204712,3.94773406 21.2254057,3.94773406 C20.4303402,3.94773406 19.7857507,4.59239782 19.7857507,5.38776026 C19.7857507,6.18304847 20.4303402,6.82778646 21.2254057,6.82778646" id="Fill-1" fill="#333333" mask="url(#mask-2)"></path>
                    </g>
                </g>
                <rect id="Rectangle-3" fill="#156FFF" x="0" y="0" width="1" height="49"></rect>
                <path d="M26.704,43.256 C25.5199941,43.256 24.4533381,43.0080025 23.504,42.512 C22.5546619,42.0159975 21.8106694,41.3226711 21.272,40.432 C20.7333306,39.5413289 20.464,38.5306723 20.464,37.4 C20.464,36.2693277 20.7333306,35.2586711 21.272,34.368 C21.8106694,33.4773289 22.5546619,32.7840025 23.504,32.288 C24.4533381,31.7919975 25.5199941,31.544 26.704,31.544 C27.7920054,31.544 28.7626624,31.7359981 29.616,32.12 C30.4693376,32.5040019 31.1733306,33.058663 31.728,33.784 L29.344,35.912 C28.6506632,35.037329 27.8346714,34.6 26.896,34.6 C26.1066627,34.6 25.4720024,34.8533308 24.992,35.36 C24.5119976,35.8666692 24.272,36.5466624 24.272,37.4 C24.272,38.2533376 24.5119976,38.9333308 24.992,39.44 C25.4720024,39.9466692 26.1066627,40.2 26.896,40.2 C27.8346714,40.2 28.6506632,39.762671 29.344,38.888 L31.728,41.016 C31.1733306,41.741337 30.4693376,42.2959981 29.616,42.68 C28.7626624,43.0640019 27.7920054,43.256 26.704,43.256 Z M43.588,41.048 L39.332,41.048 L38.58,43 L34.74,43 L39.636,31.8 L43.348,31.8 L48.244,43 L44.34,43 L43.588,41.048 Z M42.548,38.328 L41.46,35.512 L40.372,38.328 L42.548,38.328 Z M59.3999999,37.096 L62.6799999,37.096 L62.6799999,41.832 C62.0186633,42.290669 61.2506709,42.6426654 60.3759999,42.888 C59.5013289,43.1333346 58.6426708,43.256 57.7999999,43.256 C56.6053273,43.256 55.533338,43.0080025 54.5839999,42.512 C53.6346618,42.0159975 52.8906693,41.3226711 52.3519999,40.432 C51.8133305,39.5413289 51.5439999,38.5306723 51.5439999,37.4 C51.5439999,36.2693277 51.8133305,35.2586711 52.3519999,34.368 C52.8906693,33.4773289 53.6426617,32.7840025 54.6079999,32.288 C55.5733381,31.7919975 56.6639938,31.544 57.8799999,31.544 C58.9786721,31.544 59.9626622,31.7279982 60.8319999,32.096 C61.7013376,32.4640018 62.423997,32.9999965 62.9999999,33.704 L60.5839999,35.832 C59.8799964,35.0106626 59.0426714,34.6 58.0719999,34.6 C57.2399957,34.6 56.578669,34.8506642 56.0879999,35.352 C55.5973308,35.8533358 55.3519999,36.5359957 55.3519999,37.4 C55.3519999,38.2426709 55.5946641,38.9199974 56.0799999,39.432 C56.5653357,39.9440026 57.2133292,40.2 58.0239999,40.2 C58.5040023,40.2 58.9626644,40.1093342 59.3999999,39.928 L59.3999999,37.096 Z M75.2279999,41.048 L70.9719999,41.048 L70.2199999,43 L66.3799999,43 L71.2759999,31.8 L74.9879999,31.8 L79.8839999,43 L75.9799999,43 L75.2279999,41.048 Z M74.1879999,38.328 L73.0999999,35.512 L72.0119999,38.328 L74.1879999,38.328 Z M85.6639998,34.728 L82.3839998,34.728 L82.3839998,31.8 L92.7199998,31.8 L92.7199998,34.728 L89.4399998,34.728 L89.4399998,43 L85.6639998,43 L85.6639998,34.728 Z M104.068,41.048 L99.8119998,41.048 L99.0599998,43 L95.2199998,43 L100.116,31.8 L103.828,31.8 L108.724,43 L104.82,43 L104.068,41.048 Z M103.028,38.328 L101.94,35.512 L100.852,38.328 L103.028,38.328 Z M118.568,38.936 L118.568,43 L114.792,43 L114.792,38.888 L110.568,31.8 L114.552,31.8 L116.84,35.672 L119.144,31.8 L122.792,31.8 L118.568,38.936 Z M137.104,34.728 L133.824,34.728 L133.824,31.8 L144.16,31.8 L144.16,34.728 L140.88,34.728 L140.88,43 L137.104,43 L137.104,34.728 Z M154.148,43.256 C152.94266,43.256 151.860004,43.0053358 150.9,42.504 C149.939995,42.0026642 149.188002,41.3066711 148.644,40.416 C148.099997,39.5253289 147.828,38.5200056 147.828,37.4 C147.828,36.2799944 148.099997,35.2746711 148.644,34.384 C149.188002,33.4933289 149.939995,32.7973358 150.9,32.296 C151.860004,31.7946642 152.94266,31.544 154.148,31.544 C155.353339,31.544 156.435995,31.7946642 157.396,32.296 C158.356004,32.7973358 159.107997,33.4933289 159.652,34.384 C160.196002,35.2746711 160.468,36.2799944 160.468,37.4 C160.468,38.5200056 160.196002,39.5253289 159.652,40.416 C159.107997,41.3066711 158.356004,42.0026642 157.396,42.504 C156.435995,43.0053358 155.353339,43.256 154.148,43.256 Z M154.148,40.2 C154.617335,40.2 155.041331,40.0853345 155.42,39.856 C155.798668,39.6266655 156.099998,39.3013354 156.324,38.88 C156.548001,38.4586646 156.66,37.9653362 156.66,37.4 C156.66,36.8346638 156.548001,36.3413354 156.324,35.92 C156.099998,35.4986646 155.798668,35.1733345 155.42,34.944 C155.041331,34.7146655 154.617335,34.6 154.148,34.6 C153.678664,34.6 153.254668,34.7146655 152.876,34.944 C152.497331,35.1733345 152.196001,35.4986646 151.972,35.92 C151.747998,36.3413354 151.636,36.8346638 151.636,37.4 C151.636,37.9653362 151.747998,38.4586646 151.972,38.88 C152.196001,39.3013354 152.497331,39.6266655 152.876,39.856 C153.254668,40.0853345 153.678664,40.2 154.148,40.2 Z M170.536,31.8 C171.570671,31.8 172.471996,31.970665 173.24,32.312 C174.008003,32.653335 174.599997,33.1439968 175.016,33.784 C175.432002,34.4240032 175.64,35.1706624 175.64,36.024 C175.64,36.8773376 175.432002,37.6239968 175.016,38.264 C174.599997,38.9040032 174.008003,39.394665 173.24,39.736 C172.471996,40.077335 171.570671,40.248 170.536,40.248 L168.92,40.248 L168.92,43 L165.144,43 L165.144,31.8 L170.536,31.8 Z M170.296,37.336 C170.808002,37.336 171.191998,37.2213345 171.448,36.992 C171.704001,36.7626655 171.832,36.4400021 171.832,36.024 C171.832,35.6079979 171.704001,35.2853345 171.448,35.056 C171.191998,34.8266655 170.808002,34.712 170.296,34.712 L168.92,34.712 L168.92,37.336 L170.296,37.336 Z M186.123999,43.256 C184.939994,43.256 183.873338,43.0080025 182.923999,42.512 C181.974661,42.0159975 181.230669,41.3226711 180.691999,40.432 C180.15333,39.5413289 179.883999,38.5306723 179.883999,37.4 C179.883999,36.2693277 180.15333,35.2586711 180.691999,34.368 C181.230669,33.4773289 181.974661,32.7840025 182.923999,32.288 C183.873338,31.7919975 184.939994,31.544 186.123999,31.544 C187.212005,31.544 188.182662,31.7359981 189.035999,32.12 C189.889337,32.5040019 190.59333,33.058663 191.147999,33.784 L188.763999,35.912 C188.070663,35.037329 187.254671,34.6 186.315999,34.6 C185.526662,34.6 184.892002,34.8533308 184.411999,35.36 C183.931997,35.8666692 183.691999,36.5466624 183.691999,37.4 C183.691999,38.2533376 183.931997,38.9333308 184.411999,39.44 C184.892002,39.9466692 185.526662,40.2 186.315999,40.2 C187.254671,40.2 188.070663,39.762671 188.763999,38.888 L191.147999,41.016 C190.59333,41.741337 189.889337,42.2959981 189.035999,42.68 C188.182662,43.0640019 187.212005,43.256 186.123999,43.256 Z M200.735999,43.256 C199.018658,43.256 197.680004,42.7920046 196.719999,41.864 C195.759995,40.9359954 195.279999,39.634675 195.279999,37.96 L195.279999,31.8 L199.055999,31.8 L199.055999,37.848 C199.055999,38.6693374 199.202665,39.2666648 199.495999,39.64 C199.789334,40.0133352 200.21333,40.2 200.767999,40.2 C201.322669,40.2 201.746665,40.0133352 202.039999,39.64 C202.333334,39.2666648 202.479999,38.6693374 202.479999,37.848 L202.479999,31.8 L206.191999,31.8 L206.191999,37.96 C206.191999,39.634675 205.712004,40.9359954 204.751999,41.864 C203.791995,42.7920046 202.453341,43.256 200.735999,43.256 Z" id="CAGATAY-TOPCU" fill="#FFFFFF"></path>
            </g>
        </g>
    </g>
</svg>