<?xml version="1.0" encoding="UTF-8"?>
<svg width="139px" height="38px" viewBox="0 0 139 38" version="1.1" xmlns="http://www.w3.org/2000/svg" xmlns:xlink="http://www.w3.org/1999/xlink">
    <!-- Generator: Sketch 61.2 (89653) - https://sketch.com -->
    <title>signature</title>
    <desc>Created with Sketch.</desc>
    <defs>
        <linearGradient x1="50%" y1="0%" x2="50%" y2="95.0317397%" id="linearGradient-1">
            <stop stop-color="#00A4FF" offset="0%"></stop>
            <stop stop-color="#77BBFA" offset="13.122023%"></stop>
            <stop stop-color="#77BBFA" offset="43.3458877%"></stop>
            <stop stop-color="#00A4FF" offset="54.5988777%"></stop>
            <stop stop-color="#7E19BA" offset="100%"></stop>
        </linearGradient>
        <path d="M4.77984644,30.4203531 C4.53191279,30.2987656 4.429489,29.9992095 4.55107649,29.7512759 C4.67266398,29.5033422 4.97222005,29.4009184 5.2201537,29.5225059 C5.62973238,29.7233647 6.04277642,29.9001166 6.45932907,30.0528195 C6.71859927,30.1478646 6.85173,30.4350939 6.75668487,30.6943641 C6.66163975,30.9536343 6.37441042,31.0867651 6.11514022,30.99172 C5.66563596,30.8269375 5.22052362,30.6364626 4.77984644,30.4203531 Z M8.52958922,31.6227537 C8.25689263,31.579266 8.07108217,31.3229479 8.11456993,31.0502513 C8.15805769,30.7775547 8.41437575,30.5917443 8.68707234,30.635232 C9.8095713,30.8142404 10.9588167,30.8297676 12.1361803,30.6814235 C12.4101565,30.6469034 12.6602422,30.8410209 12.6947624,31.1149971 C12.7292825,31.3889734 12.535165,31.6390591 12.2611888,31.6735792 C10.9908628,31.8336363 9.74653908,31.8168245 8.52958922,31.6227537 Z M14.692825,31.160605 C14.4278788,31.238439 14.1500006,31.0867545 14.0721666,30.8218084 C13.9943326,30.5568622 14.146017,30.2789839 14.4109632,30.2011499 C14.8368591,30.0760333 15.2663451,29.9306677 15.6994241,29.7650171 C15.9573432,29.6663643 16.2464017,29.7954752 16.3450545,30.0533943 C16.4437073,30.3113133 16.3145964,30.6003719 16.0566773,30.6990247 C15.599069,30.8740576 15.1444506,31.0279297 14.692825,31.160605 Z M18.3023642,29.6699577 C18.0589621,29.8003801 17.7559174,29.7087919 17.625495,29.4653897 C17.4950726,29.2219875 17.5866609,28.9189428 17.830063,28.7885205 C18.7872318,28.27564 19.7831505,27.6463797 20.817417,26.9005866 C21.0414008,26.7390754 21.3539063,26.7897195 21.5154175,27.0137034 C21.6769286,27.2376872 21.6262845,27.5501926 21.4023007,27.7117038 C20.3333915,28.4824772 19.3002134,29.1352794 18.3023642,29.6699577 Z M23.3257876,26.2290739 C23.1121081,26.4039902 22.797089,26.3725664 22.6221727,26.158887 C22.4472564,25.9452076 22.4786801,25.6301885 22.6923596,25.4552722 C23.0413843,25.1695633 23.3943459,24.8717041 23.7512365,24.561695 C23.9597106,24.3806062 24.2755137,24.4028064 24.4566025,24.6112806 C24.6376913,24.8197547 24.6154911,25.1355578 24.407017,25.3166466 C24.0428509,25.6329756 23.6824438,25.9371179 23.3257876,26.2290739 Z M26.200994,23.6885366 C26.0003078,23.8782197 25.683851,23.8693 25.4941679,23.6686138 C25.3044848,23.4679276 25.3134046,23.1514708 25.5140907,22.9617877 C26.3395352,22.1816002 27.1843917,21.3409249 28.0486076,20.4397745 C28.2397427,20.2404708 28.5562559,20.2338488 28.7555597,20.4249839 C28.9548634,20.616119 28.9614854,20.9326322 28.7703503,21.131936 C27.8950583,22.0446358 27.0386239,22.8968317 26.200994,23.6885366 Z M30.4198132,19.3649104 C30.2339728,19.5691602 29.9177423,19.584084 29.7134925,19.3982436 C29.5092428,19.2124032 29.494319,18.8961727 29.6801594,18.6919229 C29.9880342,18.35355 30.2982234,18.0079208 30.6107257,17.655036 C30.7938005,17.4483037 31.1098015,17.4291255 31.3165338,17.6122002 C31.5232661,17.795275 31.5424443,18.1112761 31.3593696,18.3180084 C31.0439148,18.6742272 30.7307298,19.0231944 30.4198132,19.3649104 Z" id="path-2"></path>
        <filter x="-16.7%" y="-31.5%" width="133.4%" height="163.0%" filterUnits="objectBoundingBox" id="filter-3">
            <feOffset dx="0" dy="0" in="SourceAlpha" result="shadowOffsetOuter1"></feOffset>
            <feGaussianBlur stdDeviation="1.5" in="shadowOffsetOuter1" result="shadowBlurOuter1"></feGaussianBlur>
            <feColorMatrix values="0 0 0 0 0   0 0 0 0 0.419607843   0 0 0 0 1  0 0 0 1 0" type="matrix" in="shadowBlurOuter1"></feColorMatrix>
        </filter>
        <linearGradient x1="50%" y1="0%" x2="50%" y2="95.0317397%" id="linearGradient-4">
            <stop stop-color="#00A4FF" offset="0%"></stop>
            <stop stop-color="#77BBFA" offset="13.122023%"></stop>
            <stop stop-color="#77BBFA" offset="43.3458877%"></stop>
            <stop stop-color="#00A4FF" offset="54.5988777%"></stop>
            <stop stop-color="#7E19BA" offset="100%"></stop>
        </linearGradient>
        <path d="M35.469235,12.3647493 C35.2213014,12.2431618 35.1188776,11.9436058 35.2404651,11.6956721 C35.3620526,11.4477385 35.6616086,11.3453147 35.9095423,11.4669022 C36.319121,11.6677609 36.732165,11.8445129 37.1487176,11.9972157 C37.4079878,12.0922609 37.5411186,12.3794902 37.4460734,12.6387604 C37.3510283,12.8980306 37.063799,13.0311613 36.8045288,12.9361162 C36.3550245,12.7713337 35.9099122,12.5808589 35.469235,12.3647493 Z M39.2189778,13.56715 C38.9462812,13.5236622 38.7604707,13.2673442 38.8039585,12.9946476 C38.8474463,12.721951 39.1037643,12.5361405 39.3764609,12.5796283 C40.4989599,12.7586366 41.6482053,12.7741639 42.8255689,12.6258198 C43.0995451,12.5912996 43.3496308,12.7854172 43.384151,13.0593934 C43.4186711,13.3333696 43.2245536,13.5834553 42.9505773,13.6179755 C41.6802514,13.7780325 40.4359277,13.7612207 39.2189778,13.56715 Z M45.3822136,13.1050012 C45.1172674,13.1828352 44.8393892,13.0311508 44.7615552,12.7662046 C44.6837212,12.5012584 44.8354056,12.2233802 45.1003518,12.1455462 C45.5262477,12.0204296 45.9557337,11.8750639 46.3888127,11.7094134 C46.6467317,11.6107606 46.9357903,11.7398715 47.0344431,11.9977905 C47.1330958,12.2557096 47.003985,12.5447682 46.7460659,12.6434209 C46.2884576,12.8184538 45.8338392,12.9723259 45.3822136,13.1050012 Z M48.9914493,11.6187063 C48.7473526,11.7478241 48.4448025,11.6546153 48.3156847,11.4105185 C48.1865669,11.1664218 48.2797758,10.8638717 48.5238725,10.7347539 C49.4682033,10.2352392 50.4762728,9.61915118 51.5475627,8.88644973 C51.7754934,8.73055808 52.0866429,8.78895727 52.2425346,9.01688798 C52.3984262,9.24481868 52.340027,9.55596818 52.1120963,9.71185983 C51.0109455,10.4649845 49.9709025,11.1006133 48.9914493,11.6187063 Z M54.0752711,8.2939139 C53.8552327,8.46076039 53.5416006,8.4176399 53.3747541,8.19760158 C53.2079076,7.97756326 53.2510281,7.66393115 53.4710665,7.49708466 C53.8304907,7.22454722 54.1960749,6.9405434 54.5678117,6.64507465 C54.7839865,6.4732518 55.0985207,6.50920611 55.2703435,6.72538085 C55.4421664,6.94155559 55.4062121,7.25608979 55.1900373,7.42791265 C54.8124205,7.72805503 54.4408342,8.01672163 54.0752711,8.2939139 Z M57.0576582,5.89169037 C56.8471417,6.07040081 56.5316109,6.0446169 56.3529005,5.83410041 C56.1741901,5.62358391 56.199974,5.30805314 56.4104905,5.12934271 C57.2755144,4.39501168 58.1704008,3.60482627 59.0951071,2.75880154 C59.2988446,2.5723997 59.615115,2.58645302 59.8015169,2.79019052 C59.9879187,2.99392801 59.9738654,3.31019843 59.7701279,3.49660028 C58.8365035,4.35078432 57.9323611,5.14914266 57.0576582,5.89169037 Z M61.5306256,1.85300279 C61.3305805,2.04336187 61.0140954,2.03550982 60.8237363,1.83546475 C60.6333773,1.63541967 60.6412293,1.31893457 60.8412744,1.12857548 C61.1729613,0.812948535 61.5081872,0.490684014 61.8469509,0.161782409 C62.0450757,-0.0305745148 62.3616237,-0.0258987462 62.5539806,0.172226031 C62.7463375,0.370350808 62.7416617,0.686898771 62.543537,0.879255695 C62.2023913,1.21046985 61.8647545,1.53505205 61.5306256,1.85300279 Z" id="path-5"></path>
        <filter x="-16.4%" y="-32.8%" width="132.7%" height="165.7%" filterUnits="objectBoundingBox" id="filter-6">
            <feOffset dx="0" dy="0" in="SourceAlpha" result="shadowOffsetOuter1"></feOffset>
            <feGaussianBlur stdDeviation="1.5" in="shadowOffsetOuter1" result="shadowBlurOuter1"></feGaussianBlur>
            <feColorMatrix values="0 0 0 0 0   0 0 0 0 0.419607843   0 0 0 0 1  0 0 0 1 0" type="matrix" in="shadowBlurOuter1"></feColorMatrix>
        </filter>
    </defs>
    <g id="Pages" stroke="none" stroke-width="1" fill="none" fill-rule="evenodd">
        <g id="signature" transform="translate(0.000000, 3.000000)">
            <g id="cagataylogo">
                <g id="Path-2-Copy-3">
                    <use fill="black" fill-opacity="1" filter="url(#filter-3)" xlink:href="#path-2"></use>
                    <use fill="url(#linearGradient-1)" fill-rule="evenodd" xlink:href="#path-2"></use>
                </g>
                <g id="Path-2-Copy-2" transform="translate(48.942260, 6.873545) rotate(-180.000000) translate(-48.942260, -6.873545) ">
                    <use fill="black" fill-opacity="1" filter="url(#filter-6)" xlink:href="#path-5"></use>
                    <use fill="url(#linearGradient-4)" fill-rule="evenodd" xlink:href="#path-5"></use>
                </g>
                <path d="M18.943731,5.20239529 L18.943731,9.49940134 C16.8492303,7.74530073 14.6821804,6.86826358 12.4425163,6.86826358 C9.97473821,6.86826358 7.89582191,7.75567986 6.20570499,9.53053906 C4.50521927,11.295019 3.65498916,13.4538796 3.65498916,16.0071859 C3.65498916,18.5293542 4.50521927,20.6570775 6.20570499,22.3904195 C7.90619072,24.1237615 9.99029136,24.9904195 12.4580694,24.9904195 C13.7334337,24.9904195 14.8169587,24.7828368 15.7086768,24.367665 C16.2063799,24.1600792 16.7222208,23.8798424 17.2562148,23.5269465 C17.7902088,23.1740505 18.3527086,22.7485058 18.943731,22.2502997 L18.943731,26.6251501 C16.869968,27.7980103 14.6925494,28.3844316 12.41141,28.3844316 C8.97933209,28.3844316 6.05018567,27.1856411 3.62388287,24.7880243 C1.20794888,22.3696489 0,19.4531112 0,16.0383236 C0,12.976432 1.01094434,10.2467187 3.03286334,7.84910191 C5.52137904,4.91176183 8.74084793,3.44311382 12.6913666,3.44311382 C14.8480802,3.44311382 16.9321808,4.02953511 18.943731,5.20239529 Z M24.6056981,27.9485034 L20.7018586,27.9485034 L32.5844617,2.40000004 L44.0471298,27.9485034 L40.0810777,27.9485034 L32.5222491,10.5269463 L24.6056981,27.9485034 Z M56.4778257,15.431138 L66.4007324,15.431138 L66.4007324,16.2251499 C66.4007324,18.031147 66.1881749,19.6295343 65.7630535,21.0203596 C65.3483009,22.307392 64.6484163,23.511372 63.6633789,24.6323357 C61.4340836,27.1441247 58.5982551,28.4000004 55.1558084,28.4000004 C51.7963122,28.4000004 48.9190091,27.1856413 46.5238127,24.7568866 C44.1286163,22.3177526 42.9310361,19.3908357 42.9310361,15.9760481 C42.9310361,12.4886055 44.1493537,9.53055121 46.5860253,7.10179651 C49.0226969,4.66266252 51.9881336,3.44311382 55.4824244,3.44311382 C57.35918,3.44311382 59.1114835,3.82714193 60.7393875,4.59520965 C62.2947099,5.36327737 63.8240872,6.60877392 65.3275654,8.33173665 L62.7457433,10.8071858 C60.7756684,8.18122452 58.3753236,6.86826358 55.544637,6.86826358 C53.0042772,6.86826358 50.8735176,7.74530073 49.1522943,9.49940134 C47.4310709,11.2223641 46.5704721,13.3812248 46.5704721,15.9760481 C46.5704721,18.6539059 47.5295732,20.8594727 49.447804,22.5928147 C51.2416091,24.2016052 53.1857328,25.0059884 55.2802335,25.0059884 C57.0636698,25.0059884 58.6656277,24.4039984 60.0861554,23.2000003 C61.5066831,21.985623 62.2998856,20.5325437 62.4657867,18.8407188 L56.4778257,18.8407188 L56.4778257,15.431138 Z M77.1050292,10.5269463 L69.1884783,27.9485034 L65.2846388,27.9485034 L77.1672418,2.40000004 L88.6299099,27.9485034 L84.6638579,27.9485034 L77.1050292,10.5269463 Z M95.0881981,7.31976059 L95.0881981,27.9485034 L91.4643152,27.9485034 L91.4643152,7.31976059 L85.9429486,7.31976059 L85.9429486,3.9101797 L100.594012,3.9101797 L100.594012,7.31976059 L95.0881981,7.31976059 Z M109.758547,10.5269463 L101.841996,27.9485034 L97.9381564,27.9485034 L109.820759,2.40000004 L121.283428,27.9485034 L117.317376,27.9485034 L109.758547,10.5269463 Z M127.306228,17.5640721 L119.467442,3.9101797 L123.635685,3.9101797 L129.125946,13.5161679 L134.631759,3.9101797 L138.800002,3.9101797 L130.930111,17.5640721 L130.930111,27.9485034 L127.306228,27.9485034 L127.306228,17.5640721 Z" id="Shape" fill="#E7E7E7"></path>
                <polygon id="Rectangle" fill="#E7E7E7" fill-rule="nonzero" points="26.4052009 16.0000002 33.6000005 16.0000002 34.6000005 18.8000003 25.6000004 18.8000003"></polygon>
                <polygon id="Rectangle-Copy" fill="#E7E7E7" fill-rule="nonzero" points="70.8617317 16.0000002 78.2000012 16.0000002 79.2000012 18.8000003 70.200001 18.8000003"></polygon>
                <polygon id="Rectangle-Copy-2" fill="#E7E7E7" fill-rule="nonzero" points="103.57309 16.0000002 110.800002 16.0000002 111.800002 18.8000003 103.800002 18.8000003"></polygon>
            </g>
        </g>
    </g>
</svg>